<?xml version="1.0" standalone="no"?>
<!DOCTYPE svg PUBLIC "-//W3C//DTD SVG 20010904//EN"
 "http://www.w3.org/TR/2001/REC-SVG-20010904/DTD/svg10.dtd">
<svg version="1.0" xmlns="http://www.w3.org/2000/svg"
 width="593.000000pt" height="593.000000pt" viewBox="0 0 593.000000 593.000000"
 preserveAspectRatio="xMidYMid meet">
<metadata>
Created by potrace 1.14, written by Peter Selinger 2001-2017
</metadata>
<g transform="translate(0.000000,593.000000) scale(0.100000,-0.100000)"
fill="#000000" stroke="none">
<path d="M3152 4643 c-15 -7 -34 -17 -42 -22 -8 -5 -36 -20 -62 -32 -27 -12
-48 -26 -48 -30 0 -4 -46 -34 -103 -67 -69 -40 -107 -69 -117 -88 -8 -16 -23
-42 -35 -59 -11 -16 -20 -32 -21 -35 0 -3 -14 -34 -31 -70 -31 -66 -38 -85
-47 -130 -3 -14 -10 -45 -16 -69 -19 -79 -14 -132 28 -276 3 -11 6 -43 6 -72
1 -28 3 -50 5 -47 2 2 10 -4 18 -14 8 -9 12 -11 8 -4 -3 6 -1 12 4 12 15 0 14
-27 -1 -33 -9 -4 -7 -6 3 -6 17 -1 19 -27 4 -50 -5 -9 -4 -12 2 -8 6 4 9 -31
9 -91 -1 -56 3 -99 9 -101 6 -3 16 -11 23 -18 19 -19 134 -21 140 -2 2 5 16 9
30 10 15 0 36 4 47 8 10 4 24 4 30 -1 5 -4 21 -16 34 -26 l23 -18 -61 -71
c-63 -74 -70 -79 -136 -99 -22 -6 -54 -17 -70 -24 -42 -17 -120 -5 -148 23
-20 21 -121 66 -194 88 -18 6 -37 19 -43 29 -6 11 -19 20 -29 20 -10 0 -24 7
-32 16 -8 10 -21 13 -36 9 -16 -4 -23 -1 -23 10 0 11 -12 15 -53 15 -29 0 -58
5 -64 11 -9 9 -87 32 -155 46 -17 3 -30 15 -36 32 -17 45 -82 102 -82 72 0
-13 -39 -11 -69 2 -19 10 -25 8 -37 -7 -7 -10 -15 -22 -16 -27 -2 -4 -15 -11
-30 -14 -24 -6 -28 -4 -28 15 0 13 -5 20 -12 18 -16 -6 -38 16 -38 36 0 18 -8
20 -29 7 -10 -6 -22 -5 -34 4 -16 11 -24 10 -55 -8 -25 -15 -37 -18 -40 -9 -2
7 -8 9 -13 6 -6 -3 -16 0 -24 6 -15 12 -39 5 -30 -10 9 -15 -24 -19 -38 -5
-11 10 -17 11 -26 2 -9 -9 -13 -6 -17 11 -7 26 -8 26 -39 6 -15 -10 -25 -26
-25 -40 0 -12 -5 -26 -10 -29 -6 -4 -10 -14 -9 -23 4 -27 -11 -61 -25 -56 -18
7 -45 -75 -27 -85 20 -13 -13 -33 -43 -25 -22 5 -26 3 -26 -14 0 -11 -3 -28
-6 -36 -5 -13 -2 -15 12 -9 17 6 17 5 6 -10 -12 -14 -12 -19 1 -31 8 -8 18
-12 21 -8 4 3 4 -1 0 -11 -4 -12 -1 -17 12 -18 11 0 4 -6 -16 -13 -55 -21
-136 -63 -155 -82 -16 -16 -20 -16 -71 9 -60 30 -109 34 -137 12 -18 -13 -18
-14 1 -31 16 -14 18 -20 9 -35 -15 -23 -1 -39 39 -43 16 -2 32 -4 37 -5 4 0 7
-8 7 -16 0 -9 15 -25 34 -36 40 -24 82 -75 92 -113 3 -15 26 -56 50 -92 24
-36 44 -67 44 -69 0 -1 20 -45 44 -97 70 -147 158 -374 231 -593 75 -224 111
-306 192 -445 114 -193 164 -275 177 -292 32 -42 133 -31 215 24 48 32 154
148 187 206 29 51 67 34 38 -19 -7 -13 -13 -33 -14 -45 0 -12 -22 -67 -50
-122 -27 -56 -50 -103 -50 -106 0 -3 -11 -29 -24 -58 -13 -29 -35 -79 -50
-111 -14 -32 -26 -62 -26 -67 0 -7 347 -10 961 -10 l961 0 -6 34 c-4 19 -7 75
-7 126 -1 123 6 132 96 135 88 2 176 35 205 75 18 25 22 50 27 162 3 73 10
141 15 151 8 15 20 105 43 322 3 28 14 109 25 180 11 72 22 152 26 180 3 27 8
61 10 75 6 41 5 223 -1 266 -17 110 -118 229 -221 259 -44 13 -72 31 -129 83
-40 37 -99 87 -131 112 -42 33 -64 59 -82 100 -38 81 -61 109 -99 116 l-34 6
48 28 c56 32 246 218 270 263 8 17 23 58 33 91 9 34 36 105 59 160 47 110 47
118 -1 197 -32 50 -33 56 -33 161 l0 110 -40 35 c-70 61 -139 128 -185 179
-38 41 -55 52 -109 67 -36 10 -82 31 -103 47 -35 25 -42 27 -74 17 -31 -9 -42
-7 -92 18 -51 27 -67 30 -155 30 -60 1 -108 -4 -125 -12z m-1673 -1934 c110
-26 315 -51 450 -55 85 -3 156 -6 158 -8 3 -3 -23 -54 -188 -361 -30 -55 -81
-155 -114 -222 -33 -68 -63 -123 -67 -123 -22 0 -143 198 -227 370 -86 177
-85 175 -86 297 0 106 6 129 29 115 4 -2 25 -9 45 -13z"/>
</g>
</svg>
